# xmcd
#
# Track frame offsets: 
#        150
#        23751
#        53315
#        69299
#        92409
#        107285
#        123731
#        141555
#        167612
#        188697
#        209962
#        229485
#        258117
#
# Disc length: 3751 seconds
#
# Revision: 0
# Processed by: cddbd v1.5.2PL0 Copyright (c) Steve Scherf et al.
# Submitted via: ExactAudioCopy v0.95a5
#
DISCID=ae0ea50d
DTITLE=Johnny Dowd - Wake Up The Snakes
DYEAR=2010
DGENRE=Alt. Rock
TTITLE0=Yolanda
TTITLE1=Lies
TTITLE2=Howling Wolf Blues
TTITLE3=Babylon, PA
TTITLE4=Hello Happyness
TTITLE5=Swamp Woman
TTITLE6=Me And Mary Lou
TTITLE7=Time
TTITLE8=Words Of Love
TTITLE9=Demons And Goats
TTITLE10=Fat Joey Brown
TTITLE11=Voices
TTITLE12=Organ Grinder
EXTD=
EXTT0=
EXTT1=
EXTT2=
EXTT3=
EXTT4=
EXTT5=
EXTT6=
EXTT7=
EXTT8=
EXTT9=
EXTT10=
EXTT11=
EXTT12=
PLAYORDER=
